<mxfile host="app.diagrams.net" modified="2021-06-08T13:38:10.045Z" agent="5.0 (X11)" etag="Idewe6PEGzCVi3pyPpEx" version="14.7.6" type="github" pages="2">
  <diagram id="LSXfQ0yc_IBLLmdil5dM" name="Page-1">
    <mxGraphModel dx="1893" dy="495" grid="1" gridSize="10" guides="1" tooltips="1" connect="1" arrows="1" fold="1" page="1" pageScale="1" pageWidth="850" pageHeight="1100" math="0" shadow="0">
      <root>
        <mxCell id="0" />
        <mxCell id="1" parent="0" />
        <mxCell id="VREcd3ZEuz7bc8ujEPia-2" value="" style="endArrow=none;html=1;" parent="1" edge="1">
          <mxGeometry width="50" height="50" relative="1" as="geometry">
            <mxPoint x="120" y="120" as="sourcePoint" />
            <mxPoint x="120" y="80" as="targetPoint" />
          </mxGeometry>
        </mxCell>
        <mxCell id="VREcd3ZEuz7bc8ujEPia-3" value="" style="endArrow=none;html=1;" parent="1" edge="1">
          <mxGeometry width="50" height="50" relative="1" as="geometry">
            <mxPoint x="160" y="120" as="sourcePoint" />
            <mxPoint x="160" y="80" as="targetPoint" />
          </mxGeometry>
        </mxCell>
        <mxCell id="VREcd3ZEuz7bc8ujEPia-4" value="" style="endArrow=none;html=1;" parent="1" edge="1">
          <mxGeometry width="50" height="50" relative="1" as="geometry">
            <mxPoint x="200" y="120" as="sourcePoint" />
            <mxPoint x="200" y="80" as="targetPoint" />
          </mxGeometry>
        </mxCell>
        <mxCell id="VREcd3ZEuz7bc8ujEPia-5" value="" style="endArrow=none;html=1;" parent="1" edge="1">
          <mxGeometry width="50" height="50" relative="1" as="geometry">
            <mxPoint x="240" y="120" as="sourcePoint" />
            <mxPoint x="240" y="80" as="targetPoint" />
          </mxGeometry>
        </mxCell>
        <mxCell id="VREcd3ZEuz7bc8ujEPia-6" value="" style="endArrow=none;html=1;" parent="1" edge="1">
          <mxGeometry width="50" height="50" relative="1" as="geometry">
            <mxPoint x="280" y="120" as="sourcePoint" />
            <mxPoint x="280" y="80" as="targetPoint" />
          </mxGeometry>
        </mxCell>
        <mxCell id="VREcd3ZEuz7bc8ujEPia-7" value="" style="endArrow=none;html=1;" parent="1" edge="1">
          <mxGeometry width="50" height="50" relative="1" as="geometry">
            <mxPoint x="320" y="120" as="sourcePoint" />
            <mxPoint x="320" y="80" as="targetPoint" />
          </mxGeometry>
        </mxCell>
        <mxCell id="VREcd3ZEuz7bc8ujEPia-8" value="" style="endArrow=none;html=1;" parent="1" edge="1">
          <mxGeometry width="50" height="50" relative="1" as="geometry">
            <mxPoint x="400" y="120" as="sourcePoint" />
            <mxPoint x="400" y="80" as="targetPoint" />
          </mxGeometry>
        </mxCell>
        <mxCell id="VREcd3ZEuz7bc8ujEPia-9" value="" style="endArrow=none;html=1;" parent="1" edge="1">
          <mxGeometry width="50" height="50" relative="1" as="geometry">
            <mxPoint x="360" y="120" as="sourcePoint" />
            <mxPoint x="360" y="80" as="targetPoint" />
          </mxGeometry>
        </mxCell>
        <mxCell id="VREcd3ZEuz7bc8ujEPia-10" value="" style="endArrow=none;html=1;" parent="1" edge="1">
          <mxGeometry width="50" height="50" relative="1" as="geometry">
            <mxPoint x="440" y="120" as="sourcePoint" />
            <mxPoint x="440" y="80" as="targetPoint" />
          </mxGeometry>
        </mxCell>
        <mxCell id="VREcd3ZEuz7bc8ujEPia-11" value="" style="endArrow=none;html=1;" parent="1" edge="1">
          <mxGeometry width="50" height="50" relative="1" as="geometry">
            <mxPoint x="480" y="120" as="sourcePoint" />
            <mxPoint x="480" y="80" as="targetPoint" />
          </mxGeometry>
        </mxCell>
        <mxCell id="VREcd3ZEuz7bc8ujEPia-14" value="" style="endArrow=none;html=1;" parent="1" edge="1">
          <mxGeometry width="50" height="50" relative="1" as="geometry">
            <mxPoint x="80" y="120" as="sourcePoint" />
            <mxPoint x="120" y="120" as="targetPoint" />
          </mxGeometry>
        </mxCell>
        <mxCell id="VREcd3ZEuz7bc8ujEPia-15" value="" style="endArrow=none;html=1;" parent="1" edge="1">
          <mxGeometry width="50" height="50" relative="1" as="geometry">
            <mxPoint x="120" y="80" as="sourcePoint" />
            <mxPoint x="160" y="80" as="targetPoint" />
          </mxGeometry>
        </mxCell>
        <mxCell id="VREcd3ZEuz7bc8ujEPia-16" value="" style="endArrow=none;html=1;" parent="1" edge="1">
          <mxGeometry width="50" height="50" relative="1" as="geometry">
            <mxPoint x="160" y="120" as="sourcePoint" />
            <mxPoint x="200" y="120" as="targetPoint" />
          </mxGeometry>
        </mxCell>
        <mxCell id="VREcd3ZEuz7bc8ujEPia-17" value="" style="endArrow=none;html=1;" parent="1" edge="1">
          <mxGeometry width="50" height="50" relative="1" as="geometry">
            <mxPoint x="200" y="80" as="sourcePoint" />
            <mxPoint x="240" y="80" as="targetPoint" />
          </mxGeometry>
        </mxCell>
        <mxCell id="VREcd3ZEuz7bc8ujEPia-18" value="" style="endArrow=none;html=1;" parent="1" edge="1">
          <mxGeometry width="50" height="50" relative="1" as="geometry">
            <mxPoint x="240" y="120" as="sourcePoint" />
            <mxPoint x="280" y="120" as="targetPoint" />
          </mxGeometry>
        </mxCell>
        <mxCell id="VREcd3ZEuz7bc8ujEPia-19" value="" style="endArrow=none;html=1;" parent="1" edge="1">
          <mxGeometry width="50" height="50" relative="1" as="geometry">
            <mxPoint x="280" y="80" as="sourcePoint" />
            <mxPoint x="320" y="80" as="targetPoint" />
          </mxGeometry>
        </mxCell>
        <mxCell id="VREcd3ZEuz7bc8ujEPia-20" value="" style="endArrow=none;html=1;" parent="1" edge="1">
          <mxGeometry width="50" height="50" relative="1" as="geometry">
            <mxPoint x="320" y="120" as="sourcePoint" />
            <mxPoint x="360" y="120" as="targetPoint" />
          </mxGeometry>
        </mxCell>
        <mxCell id="VREcd3ZEuz7bc8ujEPia-21" value="" style="endArrow=none;html=1;" parent="1" edge="1">
          <mxGeometry width="50" height="50" relative="1" as="geometry">
            <mxPoint x="360" y="80" as="sourcePoint" />
            <mxPoint x="400" y="80" as="targetPoint" />
          </mxGeometry>
        </mxCell>
        <mxCell id="VREcd3ZEuz7bc8ujEPia-22" value="" style="endArrow=none;html=1;" parent="1" edge="1">
          <mxGeometry width="50" height="50" relative="1" as="geometry">
            <mxPoint x="400" y="120" as="sourcePoint" />
            <mxPoint x="440" y="120" as="targetPoint" />
          </mxGeometry>
        </mxCell>
        <mxCell id="VREcd3ZEuz7bc8ujEPia-23" value="" style="endArrow=none;html=1;" parent="1" edge="1">
          <mxGeometry width="50" height="50" relative="1" as="geometry">
            <mxPoint x="440" y="80" as="sourcePoint" />
            <mxPoint x="480" y="80" as="targetPoint" />
          </mxGeometry>
        </mxCell>
        <mxCell id="VREcd3ZEuz7bc8ujEPia-24" value="" style="endArrow=none;html=1;" parent="1" edge="1">
          <mxGeometry width="50" height="50" relative="1" as="geometry">
            <mxPoint x="480" y="120" as="sourcePoint" />
            <mxPoint x="520" y="120" as="targetPoint" />
          </mxGeometry>
        </mxCell>
        <mxCell id="VREcd3ZEuz7bc8ujEPia-28" style="edgeStyle=orthogonalEdgeStyle;rounded=0;orthogonalLoop=1;jettySize=auto;html=1;exitX=0.75;exitY=1;exitDx=0;exitDy=0;" parent="1" source="VREcd3ZEuz7bc8ujEPia-27" edge="1">
          <mxGeometry relative="1" as="geometry">
            <mxPoint x="50" y="120" as="targetPoint" />
          </mxGeometry>
        </mxCell>
        <mxCell id="VREcd3ZEuz7bc8ujEPia-27" value="&lt;font style=&quot;font-size: 18px&quot;&gt;clk&lt;/font&gt;" style="text;html=1;strokeColor=none;fillColor=none;align=center;verticalAlign=middle;whiteSpace=wrap;rounded=0;" parent="1" vertex="1">
          <mxGeometry x="20" y="100" width="40" height="20" as="geometry" />
        </mxCell>
        <mxCell id="VREcd3ZEuz7bc8ujEPia-29" value="&lt;font style=&quot;font-size: 18px&quot;&gt;rst&lt;/font&gt;" style="text;html=1;strokeColor=none;fillColor=none;align=center;verticalAlign=middle;whiteSpace=wrap;rounded=0;" parent="1" vertex="1">
          <mxGeometry x="20" y="180" width="40" height="20" as="geometry" />
        </mxCell>
        <mxCell id="VREcd3ZEuz7bc8ujEPia-32" value="" style="endArrow=none;html=1;" parent="1" edge="1">
          <mxGeometry width="50" height="50" relative="1" as="geometry">
            <mxPoint x="80" y="160" as="sourcePoint" />
            <mxPoint x="160" y="160" as="targetPoint" />
          </mxGeometry>
        </mxCell>
        <mxCell id="VREcd3ZEuz7bc8ujEPia-33" value="" style="endArrow=none;html=1;" parent="1" edge="1">
          <mxGeometry width="50" height="50" relative="1" as="geometry">
            <mxPoint x="160" y="200" as="sourcePoint" />
            <mxPoint x="500" y="200" as="targetPoint" />
          </mxGeometry>
        </mxCell>
        <mxCell id="VREcd3ZEuz7bc8ujEPia-34" value="" style="endArrow=none;html=1;" parent="1" edge="1">
          <mxGeometry width="50" height="50" relative="1" as="geometry">
            <mxPoint x="160" y="200" as="sourcePoint" />
            <mxPoint x="160" y="160" as="targetPoint" />
          </mxGeometry>
        </mxCell>
        <mxCell id="VREcd3ZEuz7bc8ujEPia-35" value="&lt;font style=&quot;font-size: 18px&quot;&gt;red_i&lt;/font&gt;" style="text;html=1;strokeColor=none;fillColor=none;align=center;verticalAlign=middle;whiteSpace=wrap;rounded=0;" parent="1" vertex="1">
          <mxGeometry x="20" y="250" width="40" height="20" as="geometry" />
        </mxCell>
        <mxCell id="VREcd3ZEuz7bc8ujEPia-37" value="" style="endArrow=none;html=1;" parent="1" edge="1">
          <mxGeometry width="50" height="50" relative="1" as="geometry">
            <mxPoint x="80" y="240" as="sourcePoint" />
            <mxPoint x="100" y="240" as="targetPoint" />
          </mxGeometry>
        </mxCell>
        <mxCell id="VREcd3ZEuz7bc8ujEPia-38" value="" style="endArrow=none;html=1;" parent="1" edge="1">
          <mxGeometry width="50" height="50" relative="1" as="geometry">
            <mxPoint x="80" y="279.9999999999999" as="sourcePoint" />
            <mxPoint x="100" y="279.9999999999999" as="targetPoint" />
          </mxGeometry>
        </mxCell>
        <mxCell id="VREcd3ZEuz7bc8ujEPia-39" value="" style="endArrow=none;html=1;" parent="1" edge="1">
          <mxGeometry width="50" height="50" relative="1" as="geometry">
            <mxPoint x="140" y="280" as="sourcePoint" />
            <mxPoint x="100" y="239.9999999999999" as="targetPoint" />
          </mxGeometry>
        </mxCell>
        <mxCell id="VREcd3ZEuz7bc8ujEPia-41" value="" style="endArrow=none;html=1;" parent="1" edge="1">
          <mxGeometry width="50" height="50" relative="1" as="geometry">
            <mxPoint x="100" y="279.9999999999999" as="sourcePoint" />
            <mxPoint x="140" y="240" as="targetPoint" />
          </mxGeometry>
        </mxCell>
        <mxCell id="VREcd3ZEuz7bc8ujEPia-42" value="" style="endArrow=none;html=1;" parent="1" edge="1">
          <mxGeometry width="50" height="50" relative="1" as="geometry">
            <mxPoint x="140" y="239.9999999999999" as="sourcePoint" />
            <mxPoint x="180" y="240" as="targetPoint" />
          </mxGeometry>
        </mxCell>
        <mxCell id="VREcd3ZEuz7bc8ujEPia-43" value="" style="endArrow=none;html=1;" parent="1" edge="1">
          <mxGeometry width="50" height="50" relative="1" as="geometry">
            <mxPoint x="220" y="279.9999999999999" as="sourcePoint" />
            <mxPoint x="260" y="280" as="targetPoint" />
          </mxGeometry>
        </mxCell>
        <mxCell id="VREcd3ZEuz7bc8ujEPia-50" value="" style="endArrow=none;html=1;" parent="1" edge="1">
          <mxGeometry width="50" height="50" relative="1" as="geometry">
            <mxPoint x="140" y="279.9999999999999" as="sourcePoint" />
            <mxPoint x="180" y="280" as="targetPoint" />
          </mxGeometry>
        </mxCell>
        <mxCell id="VREcd3ZEuz7bc8ujEPia-51" value="" style="endArrow=none;html=1;" parent="1" edge="1">
          <mxGeometry width="50" height="50" relative="1" as="geometry">
            <mxPoint x="220" y="279.9999999999999" as="sourcePoint" />
            <mxPoint x="180" y="239.9999999999999" as="targetPoint" />
          </mxGeometry>
        </mxCell>
        <mxCell id="VREcd3ZEuz7bc8ujEPia-52" value="" style="endArrow=none;html=1;" parent="1" edge="1">
          <mxGeometry width="50" height="50" relative="1" as="geometry">
            <mxPoint x="180" y="279.9999999999999" as="sourcePoint" />
            <mxPoint x="220" y="239.9999999999999" as="targetPoint" />
          </mxGeometry>
        </mxCell>
        <mxCell id="VREcd3ZEuz7bc8ujEPia-53" value="" style="endArrow=none;html=1;" parent="1" edge="1">
          <mxGeometry width="50" height="50" relative="1" as="geometry">
            <mxPoint x="220" y="239.9999999999999" as="sourcePoint" />
            <mxPoint x="260" y="240" as="targetPoint" />
          </mxGeometry>
        </mxCell>
        <mxCell id="VREcd3ZEuz7bc8ujEPia-55" value="" style="endArrow=none;html=1;" parent="1" edge="1">
          <mxGeometry width="50" height="50" relative="1" as="geometry">
            <mxPoint x="300" y="279.4099999999999" as="sourcePoint" />
            <mxPoint x="260" y="239.40999999999988" as="targetPoint" />
          </mxGeometry>
        </mxCell>
        <mxCell id="VREcd3ZEuz7bc8ujEPia-56" value="" style="endArrow=none;html=1;" parent="1" edge="1">
          <mxGeometry width="50" height="50" relative="1" as="geometry">
            <mxPoint x="260" y="279.4099999999999" as="sourcePoint" />
            <mxPoint x="300" y="239.40999999999988" as="targetPoint" />
          </mxGeometry>
        </mxCell>
        <mxCell id="VREcd3ZEuz7bc8ujEPia-57" value="" style="endArrow=none;html=1;" parent="1" edge="1">
          <mxGeometry width="50" height="50" relative="1" as="geometry">
            <mxPoint x="300" y="239.40999999999988" as="sourcePoint" />
            <mxPoint x="340" y="239.40999999999988" as="targetPoint" />
          </mxGeometry>
        </mxCell>
        <mxCell id="VREcd3ZEuz7bc8ujEPia-58" value="" style="endArrow=none;html=1;" parent="1" edge="1">
          <mxGeometry width="50" height="50" relative="1" as="geometry">
            <mxPoint x="300" y="279.4099999999999" as="sourcePoint" />
            <mxPoint x="340" y="279.4099999999999" as="targetPoint" />
          </mxGeometry>
        </mxCell>
        <mxCell id="VREcd3ZEuz7bc8ujEPia-59" value="" style="endArrow=none;html=1;" parent="1" edge="1">
          <mxGeometry width="50" height="50" relative="1" as="geometry">
            <mxPoint x="380" y="279.4099999999999" as="sourcePoint" />
            <mxPoint x="420" y="279.4099999999999" as="targetPoint" />
          </mxGeometry>
        </mxCell>
        <mxCell id="VREcd3ZEuz7bc8ujEPia-60" value="" style="endArrow=none;html=1;" parent="1" edge="1">
          <mxGeometry width="50" height="50" relative="1" as="geometry">
            <mxPoint x="380" y="279.4099999999999" as="sourcePoint" />
            <mxPoint x="340" y="239.40999999999988" as="targetPoint" />
          </mxGeometry>
        </mxCell>
        <mxCell id="VREcd3ZEuz7bc8ujEPia-61" value="" style="endArrow=none;html=1;" parent="1" edge="1">
          <mxGeometry width="50" height="50" relative="1" as="geometry">
            <mxPoint x="340" y="279.4099999999999" as="sourcePoint" />
            <mxPoint x="380" y="239.40999999999988" as="targetPoint" />
          </mxGeometry>
        </mxCell>
        <mxCell id="VREcd3ZEuz7bc8ujEPia-62" value="" style="endArrow=none;html=1;" parent="1" edge="1">
          <mxGeometry width="50" height="50" relative="1" as="geometry">
            <mxPoint x="380" y="239.40999999999988" as="sourcePoint" />
            <mxPoint x="420" y="239.40999999999988" as="targetPoint" />
          </mxGeometry>
        </mxCell>
        <mxCell id="VREcd3ZEuz7bc8ujEPia-94" value="&lt;font style=&quot;font-size: 18px&quot;&gt;green_i&lt;/font&gt;" style="text;html=1;strokeColor=none;fillColor=none;align=center;verticalAlign=middle;whiteSpace=wrap;rounded=0;" parent="1" vertex="1">
          <mxGeometry x="20" y="330" width="40" height="20" as="geometry" />
        </mxCell>
        <mxCell id="VREcd3ZEuz7bc8ujEPia-185" value="" style="endArrow=none;html=1;" parent="1" edge="1">
          <mxGeometry width="50" height="50" relative="1" as="geometry">
            <mxPoint x="80" y="320.59000000000003" as="sourcePoint" />
            <mxPoint x="100" y="320.59000000000003" as="targetPoint" />
          </mxGeometry>
        </mxCell>
        <mxCell id="VREcd3ZEuz7bc8ujEPia-186" value="" style="endArrow=none;html=1;" parent="1" edge="1">
          <mxGeometry width="50" height="50" relative="1" as="geometry">
            <mxPoint x="80" y="360.59000000000003" as="sourcePoint" />
            <mxPoint x="100" y="360.59000000000003" as="targetPoint" />
          </mxGeometry>
        </mxCell>
        <mxCell id="VREcd3ZEuz7bc8ujEPia-187" value="" style="endArrow=none;html=1;" parent="1" edge="1">
          <mxGeometry width="50" height="50" relative="1" as="geometry">
            <mxPoint x="140" y="360.59000000000003" as="sourcePoint" />
            <mxPoint x="100" y="320.59000000000003" as="targetPoint" />
          </mxGeometry>
        </mxCell>
        <mxCell id="VREcd3ZEuz7bc8ujEPia-188" value="" style="endArrow=none;html=1;" parent="1" edge="1">
          <mxGeometry width="50" height="50" relative="1" as="geometry">
            <mxPoint x="100" y="360.59000000000003" as="sourcePoint" />
            <mxPoint x="140" y="320.59000000000003" as="targetPoint" />
          </mxGeometry>
        </mxCell>
        <mxCell id="VREcd3ZEuz7bc8ujEPia-189" value="" style="endArrow=none;html=1;" parent="1" edge="1">
          <mxGeometry width="50" height="50" relative="1" as="geometry">
            <mxPoint x="140" y="320.59000000000003" as="sourcePoint" />
            <mxPoint x="180" y="320.59000000000003" as="targetPoint" />
          </mxGeometry>
        </mxCell>
        <mxCell id="VREcd3ZEuz7bc8ujEPia-190" value="" style="endArrow=none;html=1;" parent="1" edge="1">
          <mxGeometry width="50" height="50" relative="1" as="geometry">
            <mxPoint x="220" y="360.59000000000003" as="sourcePoint" />
            <mxPoint x="260" y="360.59000000000003" as="targetPoint" />
          </mxGeometry>
        </mxCell>
        <mxCell id="VREcd3ZEuz7bc8ujEPia-191" value="" style="endArrow=none;html=1;" parent="1" edge="1">
          <mxGeometry width="50" height="50" relative="1" as="geometry">
            <mxPoint x="140" y="360.59000000000003" as="sourcePoint" />
            <mxPoint x="180" y="360.59000000000003" as="targetPoint" />
          </mxGeometry>
        </mxCell>
        <mxCell id="VREcd3ZEuz7bc8ujEPia-192" value="" style="endArrow=none;html=1;" parent="1" edge="1">
          <mxGeometry width="50" height="50" relative="1" as="geometry">
            <mxPoint x="220" y="360.59000000000003" as="sourcePoint" />
            <mxPoint x="180" y="320.59000000000003" as="targetPoint" />
          </mxGeometry>
        </mxCell>
        <mxCell id="VREcd3ZEuz7bc8ujEPia-193" value="" style="endArrow=none;html=1;" parent="1" edge="1">
          <mxGeometry width="50" height="50" relative="1" as="geometry">
            <mxPoint x="180" y="360.59000000000003" as="sourcePoint" />
            <mxPoint x="220" y="320.59000000000003" as="targetPoint" />
          </mxGeometry>
        </mxCell>
        <mxCell id="VREcd3ZEuz7bc8ujEPia-194" value="" style="endArrow=none;html=1;" parent="1" edge="1">
          <mxGeometry width="50" height="50" relative="1" as="geometry">
            <mxPoint x="220" y="320.59000000000003" as="sourcePoint" />
            <mxPoint x="260" y="320.59000000000003" as="targetPoint" />
          </mxGeometry>
        </mxCell>
        <mxCell id="VREcd3ZEuz7bc8ujEPia-195" value="" style="endArrow=none;html=1;" parent="1" edge="1">
          <mxGeometry width="50" height="50" relative="1" as="geometry">
            <mxPoint x="300" y="360" as="sourcePoint" />
            <mxPoint x="260" y="320" as="targetPoint" />
          </mxGeometry>
        </mxCell>
        <mxCell id="VREcd3ZEuz7bc8ujEPia-196" value="" style="endArrow=none;html=1;" parent="1" edge="1">
          <mxGeometry width="50" height="50" relative="1" as="geometry">
            <mxPoint x="260" y="360" as="sourcePoint" />
            <mxPoint x="300" y="320" as="targetPoint" />
          </mxGeometry>
        </mxCell>
        <mxCell id="VREcd3ZEuz7bc8ujEPia-197" value="" style="endArrow=none;html=1;" parent="1" edge="1">
          <mxGeometry width="50" height="50" relative="1" as="geometry">
            <mxPoint x="300" y="320" as="sourcePoint" />
            <mxPoint x="340" y="320" as="targetPoint" />
          </mxGeometry>
        </mxCell>
        <mxCell id="VREcd3ZEuz7bc8ujEPia-198" value="" style="endArrow=none;html=1;" parent="1" edge="1">
          <mxGeometry width="50" height="50" relative="1" as="geometry">
            <mxPoint x="300" y="360" as="sourcePoint" />
            <mxPoint x="340" y="360" as="targetPoint" />
          </mxGeometry>
        </mxCell>
        <mxCell id="VREcd3ZEuz7bc8ujEPia-199" value="" style="endArrow=none;html=1;" parent="1" edge="1">
          <mxGeometry width="50" height="50" relative="1" as="geometry">
            <mxPoint x="380" y="360" as="sourcePoint" />
            <mxPoint x="420" y="360" as="targetPoint" />
          </mxGeometry>
        </mxCell>
        <mxCell id="VREcd3ZEuz7bc8ujEPia-200" value="" style="endArrow=none;html=1;" parent="1" edge="1">
          <mxGeometry width="50" height="50" relative="1" as="geometry">
            <mxPoint x="380" y="360" as="sourcePoint" />
            <mxPoint x="340" y="320" as="targetPoint" />
          </mxGeometry>
        </mxCell>
        <mxCell id="VREcd3ZEuz7bc8ujEPia-201" value="" style="endArrow=none;html=1;" parent="1" edge="1">
          <mxGeometry width="50" height="50" relative="1" as="geometry">
            <mxPoint x="340" y="360" as="sourcePoint" />
            <mxPoint x="380" y="320" as="targetPoint" />
          </mxGeometry>
        </mxCell>
        <mxCell id="VREcd3ZEuz7bc8ujEPia-202" value="" style="endArrow=none;html=1;" parent="1" edge="1">
          <mxGeometry width="50" height="50" relative="1" as="geometry">
            <mxPoint x="380" y="320" as="sourcePoint" />
            <mxPoint x="420" y="320" as="targetPoint" />
          </mxGeometry>
        </mxCell>
        <mxCell id="VREcd3ZEuz7bc8ujEPia-209" value="" style="endArrow=none;html=1;" parent="1" edge="1">
          <mxGeometry width="50" height="50" relative="1" as="geometry">
            <mxPoint x="460" y="280" as="sourcePoint" />
            <mxPoint x="500" y="280" as="targetPoint" />
          </mxGeometry>
        </mxCell>
        <mxCell id="VREcd3ZEuz7bc8ujEPia-210" value="" style="endArrow=none;html=1;" parent="1" edge="1">
          <mxGeometry width="50" height="50" relative="1" as="geometry">
            <mxPoint x="460" y="280" as="sourcePoint" />
            <mxPoint x="420" y="240" as="targetPoint" />
          </mxGeometry>
        </mxCell>
        <mxCell id="VREcd3ZEuz7bc8ujEPia-211" value="" style="endArrow=none;html=1;" parent="1" edge="1">
          <mxGeometry width="50" height="50" relative="1" as="geometry">
            <mxPoint x="420" y="280" as="sourcePoint" />
            <mxPoint x="460" y="240" as="targetPoint" />
          </mxGeometry>
        </mxCell>
        <mxCell id="VREcd3ZEuz7bc8ujEPia-212" value="" style="endArrow=none;html=1;" parent="1" edge="1">
          <mxGeometry width="50" height="50" relative="1" as="geometry">
            <mxPoint x="460" y="240" as="sourcePoint" />
            <mxPoint x="500" y="240" as="targetPoint" />
          </mxGeometry>
        </mxCell>
        <mxCell id="VREcd3ZEuz7bc8ujEPia-213" value="" style="endArrow=none;html=1;" parent="1" edge="1">
          <mxGeometry width="50" height="50" relative="1" as="geometry">
            <mxPoint x="460" y="360" as="sourcePoint" />
            <mxPoint x="500" y="360" as="targetPoint" />
          </mxGeometry>
        </mxCell>
        <mxCell id="VREcd3ZEuz7bc8ujEPia-214" value="" style="endArrow=none;html=1;" parent="1" edge="1">
          <mxGeometry width="50" height="50" relative="1" as="geometry">
            <mxPoint x="460" y="360" as="sourcePoint" />
            <mxPoint x="420" y="320" as="targetPoint" />
          </mxGeometry>
        </mxCell>
        <mxCell id="VREcd3ZEuz7bc8ujEPia-215" value="" style="endArrow=none;html=1;" parent="1" edge="1">
          <mxGeometry width="50" height="50" relative="1" as="geometry">
            <mxPoint x="420" y="360" as="sourcePoint" />
            <mxPoint x="460" y="320" as="targetPoint" />
          </mxGeometry>
        </mxCell>
        <mxCell id="VREcd3ZEuz7bc8ujEPia-216" value="" style="endArrow=none;html=1;" parent="1" edge="1">
          <mxGeometry width="50" height="50" relative="1" as="geometry">
            <mxPoint x="460" y="320" as="sourcePoint" />
            <mxPoint x="500" y="320" as="targetPoint" />
          </mxGeometry>
        </mxCell>
        <mxCell id="VREcd3ZEuz7bc8ujEPia-217" value="&lt;font style=&quot;font-size: 18px&quot;&gt;done_i&lt;/font&gt;" style="text;html=1;strokeColor=none;fillColor=none;align=center;verticalAlign=middle;whiteSpace=wrap;rounded=0;" parent="1" vertex="1">
          <mxGeometry x="10" y="500" width="60" height="20" as="geometry" />
        </mxCell>
        <mxCell id="VREcd3ZEuz7bc8ujEPia-218" value="&lt;font style=&quot;font-size: 18px&quot;&gt;blue_i&lt;/font&gt;" style="text;html=1;strokeColor=none;fillColor=none;align=center;verticalAlign=middle;whiteSpace=wrap;rounded=0;" parent="1" vertex="1">
          <mxGeometry x="20" y="410" width="40" height="20" as="geometry" />
        </mxCell>
        <mxCell id="VREcd3ZEuz7bc8ujEPia-219" value="" style="endArrow=none;html=1;" parent="1" edge="1">
          <mxGeometry width="50" height="50" relative="1" as="geometry">
            <mxPoint x="80" y="400.59000000000003" as="sourcePoint" />
            <mxPoint x="100" y="400.59000000000003" as="targetPoint" />
          </mxGeometry>
        </mxCell>
        <mxCell id="VREcd3ZEuz7bc8ujEPia-220" value="" style="endArrow=none;html=1;" parent="1" edge="1">
          <mxGeometry width="50" height="50" relative="1" as="geometry">
            <mxPoint x="80" y="440.59000000000003" as="sourcePoint" />
            <mxPoint x="100" y="440.59000000000003" as="targetPoint" />
          </mxGeometry>
        </mxCell>
        <mxCell id="VREcd3ZEuz7bc8ujEPia-221" value="" style="endArrow=none;html=1;" parent="1" edge="1">
          <mxGeometry width="50" height="50" relative="1" as="geometry">
            <mxPoint x="140" y="440.59000000000003" as="sourcePoint" />
            <mxPoint x="100" y="400.59000000000003" as="targetPoint" />
          </mxGeometry>
        </mxCell>
        <mxCell id="VREcd3ZEuz7bc8ujEPia-222" value="" style="endArrow=none;html=1;" parent="1" edge="1">
          <mxGeometry width="50" height="50" relative="1" as="geometry">
            <mxPoint x="100" y="440.59000000000003" as="sourcePoint" />
            <mxPoint x="140" y="400.59000000000003" as="targetPoint" />
          </mxGeometry>
        </mxCell>
        <mxCell id="VREcd3ZEuz7bc8ujEPia-223" value="" style="endArrow=none;html=1;" parent="1" edge="1">
          <mxGeometry width="50" height="50" relative="1" as="geometry">
            <mxPoint x="140" y="400.59000000000003" as="sourcePoint" />
            <mxPoint x="180" y="400.59000000000003" as="targetPoint" />
          </mxGeometry>
        </mxCell>
        <mxCell id="VREcd3ZEuz7bc8ujEPia-224" value="" style="endArrow=none;html=1;" parent="1" edge="1">
          <mxGeometry width="50" height="50" relative="1" as="geometry">
            <mxPoint x="220" y="440.59000000000003" as="sourcePoint" />
            <mxPoint x="260" y="440.59000000000003" as="targetPoint" />
          </mxGeometry>
        </mxCell>
        <mxCell id="VREcd3ZEuz7bc8ujEPia-225" value="" style="endArrow=none;html=1;" parent="1" edge="1">
          <mxGeometry width="50" height="50" relative="1" as="geometry">
            <mxPoint x="140" y="440.59000000000003" as="sourcePoint" />
            <mxPoint x="180" y="440.59000000000003" as="targetPoint" />
          </mxGeometry>
        </mxCell>
        <mxCell id="VREcd3ZEuz7bc8ujEPia-226" value="" style="endArrow=none;html=1;" parent="1" edge="1">
          <mxGeometry width="50" height="50" relative="1" as="geometry">
            <mxPoint x="220" y="440.59000000000003" as="sourcePoint" />
            <mxPoint x="180" y="400.59000000000003" as="targetPoint" />
          </mxGeometry>
        </mxCell>
        <mxCell id="VREcd3ZEuz7bc8ujEPia-227" value="" style="endArrow=none;html=1;" parent="1" edge="1">
          <mxGeometry width="50" height="50" relative="1" as="geometry">
            <mxPoint x="180" y="440.59000000000003" as="sourcePoint" />
            <mxPoint x="220" y="400.59000000000003" as="targetPoint" />
          </mxGeometry>
        </mxCell>
        <mxCell id="VREcd3ZEuz7bc8ujEPia-228" value="" style="endArrow=none;html=1;" parent="1" edge="1">
          <mxGeometry width="50" height="50" relative="1" as="geometry">
            <mxPoint x="220" y="400.59000000000003" as="sourcePoint" />
            <mxPoint x="260" y="400.59000000000003" as="targetPoint" />
          </mxGeometry>
        </mxCell>
        <mxCell id="VREcd3ZEuz7bc8ujEPia-229" value="" style="endArrow=none;html=1;" parent="1" edge="1">
          <mxGeometry width="50" height="50" relative="1" as="geometry">
            <mxPoint x="300" y="440" as="sourcePoint" />
            <mxPoint x="260" y="400" as="targetPoint" />
          </mxGeometry>
        </mxCell>
        <mxCell id="VREcd3ZEuz7bc8ujEPia-230" value="" style="endArrow=none;html=1;" parent="1" edge="1">
          <mxGeometry width="50" height="50" relative="1" as="geometry">
            <mxPoint x="260" y="440" as="sourcePoint" />
            <mxPoint x="300" y="400" as="targetPoint" />
          </mxGeometry>
        </mxCell>
        <mxCell id="VREcd3ZEuz7bc8ujEPia-231" value="" style="endArrow=none;html=1;" parent="1" edge="1">
          <mxGeometry width="50" height="50" relative="1" as="geometry">
            <mxPoint x="300" y="400" as="sourcePoint" />
            <mxPoint x="340" y="400" as="targetPoint" />
          </mxGeometry>
        </mxCell>
        <mxCell id="VREcd3ZEuz7bc8ujEPia-232" value="" style="endArrow=none;html=1;" parent="1" edge="1">
          <mxGeometry width="50" height="50" relative="1" as="geometry">
            <mxPoint x="300" y="440" as="sourcePoint" />
            <mxPoint x="340" y="440" as="targetPoint" />
          </mxGeometry>
        </mxCell>
        <mxCell id="VREcd3ZEuz7bc8ujEPia-233" value="" style="endArrow=none;html=1;" parent="1" edge="1">
          <mxGeometry width="50" height="50" relative="1" as="geometry">
            <mxPoint x="380" y="440" as="sourcePoint" />
            <mxPoint x="420" y="440" as="targetPoint" />
          </mxGeometry>
        </mxCell>
        <mxCell id="VREcd3ZEuz7bc8ujEPia-234" value="" style="endArrow=none;html=1;" parent="1" edge="1">
          <mxGeometry width="50" height="50" relative="1" as="geometry">
            <mxPoint x="380" y="440" as="sourcePoint" />
            <mxPoint x="340" y="400" as="targetPoint" />
          </mxGeometry>
        </mxCell>
        <mxCell id="VREcd3ZEuz7bc8ujEPia-235" value="" style="endArrow=none;html=1;" parent="1" edge="1">
          <mxGeometry width="50" height="50" relative="1" as="geometry">
            <mxPoint x="340" y="440" as="sourcePoint" />
            <mxPoint x="380" y="400" as="targetPoint" />
          </mxGeometry>
        </mxCell>
        <mxCell id="VREcd3ZEuz7bc8ujEPia-236" value="" style="endArrow=none;html=1;" parent="1" edge="1">
          <mxGeometry width="50" height="50" relative="1" as="geometry">
            <mxPoint x="380" y="400" as="sourcePoint" />
            <mxPoint x="420" y="400" as="targetPoint" />
          </mxGeometry>
        </mxCell>
        <mxCell id="VREcd3ZEuz7bc8ujEPia-237" value="" style="endArrow=none;html=1;" parent="1" edge="1">
          <mxGeometry width="50" height="50" relative="1" as="geometry">
            <mxPoint x="460" y="440" as="sourcePoint" />
            <mxPoint x="500" y="440" as="targetPoint" />
          </mxGeometry>
        </mxCell>
        <mxCell id="VREcd3ZEuz7bc8ujEPia-238" value="" style="endArrow=none;html=1;" parent="1" edge="1">
          <mxGeometry width="50" height="50" relative="1" as="geometry">
            <mxPoint x="460" y="440" as="sourcePoint" />
            <mxPoint x="420" y="400" as="targetPoint" />
          </mxGeometry>
        </mxCell>
        <mxCell id="VREcd3ZEuz7bc8ujEPia-239" value="" style="endArrow=none;html=1;" parent="1" edge="1">
          <mxGeometry width="50" height="50" relative="1" as="geometry">
            <mxPoint x="420" y="440" as="sourcePoint" />
            <mxPoint x="460" y="400" as="targetPoint" />
          </mxGeometry>
        </mxCell>
        <mxCell id="VREcd3ZEuz7bc8ujEPia-240" value="" style="endArrow=none;html=1;" parent="1" edge="1">
          <mxGeometry width="50" height="50" relative="1" as="geometry">
            <mxPoint x="460" y="400" as="sourcePoint" />
            <mxPoint x="500" y="400" as="targetPoint" />
          </mxGeometry>
        </mxCell>
        <mxCell id="VREcd3ZEuz7bc8ujEPia-241" value="" style="endArrow=none;html=1;" parent="1" edge="1">
          <mxGeometry width="50" height="50" relative="1" as="geometry">
            <mxPoint x="70" y="680" as="sourcePoint" />
            <mxPoint x="280" y="680" as="targetPoint" />
          </mxGeometry>
        </mxCell>
        <mxCell id="VREcd3ZEuz7bc8ujEPia-243" value="" style="endArrow=none;html=1;" parent="1" edge="1">
          <mxGeometry width="50" height="50" relative="1" as="geometry">
            <mxPoint x="200" y="519.9999999999999" as="sourcePoint" />
            <mxPoint x="200" y="479.9999999999999" as="targetPoint" />
          </mxGeometry>
        </mxCell>
        <mxCell id="VREcd3ZEuz7bc8ujEPia-244" value="" style="endArrow=none;html=1;" parent="1" edge="1">
          <mxGeometry width="50" height="50" relative="1" as="geometry">
            <mxPoint x="200" y="480" as="sourcePoint" />
            <mxPoint x="500" y="480" as="targetPoint" />
          </mxGeometry>
        </mxCell>
        <mxCell id="VREcd3ZEuz7bc8ujEPia-245" value="" style="endArrow=none;html=1;" parent="1" edge="1">
          <mxGeometry width="50" height="50" relative="1" as="geometry">
            <mxPoint x="80" y="560" as="sourcePoint" />
            <mxPoint x="260" y="560" as="targetPoint" />
          </mxGeometry>
        </mxCell>
        <mxCell id="VREcd3ZEuz7bc8ujEPia-246" value="" style="endArrow=none;html=1;" parent="1" edge="1">
          <mxGeometry width="50" height="50" relative="1" as="geometry">
            <mxPoint x="80" y="600" as="sourcePoint" />
            <mxPoint x="260" y="600" as="targetPoint" />
            <Array as="points">
              <mxPoint x="170" y="600" />
            </Array>
          </mxGeometry>
        </mxCell>
        <mxCell id="VREcd3ZEuz7bc8ujEPia-247" value="" style="endArrow=none;html=1;" parent="1" edge="1">
          <mxGeometry width="50" height="50" relative="1" as="geometry">
            <mxPoint x="300" y="600" as="sourcePoint" />
            <mxPoint x="340" y="600" as="targetPoint" />
          </mxGeometry>
        </mxCell>
        <mxCell id="VREcd3ZEuz7bc8ujEPia-248" value="" style="endArrow=none;html=1;" parent="1" edge="1">
          <mxGeometry width="50" height="50" relative="1" as="geometry">
            <mxPoint x="300" y="600" as="sourcePoint" />
            <mxPoint x="260" y="560" as="targetPoint" />
          </mxGeometry>
        </mxCell>
        <mxCell id="VREcd3ZEuz7bc8ujEPia-249" value="" style="endArrow=none;html=1;" parent="1" edge="1">
          <mxGeometry width="50" height="50" relative="1" as="geometry">
            <mxPoint x="260" y="600" as="sourcePoint" />
            <mxPoint x="300" y="560" as="targetPoint" />
          </mxGeometry>
        </mxCell>
        <mxCell id="VREcd3ZEuz7bc8ujEPia-250" value="" style="endArrow=none;html=1;" parent="1" edge="1">
          <mxGeometry width="50" height="50" relative="1" as="geometry">
            <mxPoint x="300" y="560" as="sourcePoint" />
            <mxPoint x="340" y="560" as="targetPoint" />
          </mxGeometry>
        </mxCell>
        <mxCell id="VREcd3ZEuz7bc8ujEPia-251" value="" style="endArrow=none;html=1;" parent="1" edge="1">
          <mxGeometry width="50" height="50" relative="1" as="geometry">
            <mxPoint x="380" y="600" as="sourcePoint" />
            <mxPoint x="420" y="600" as="targetPoint" />
          </mxGeometry>
        </mxCell>
        <mxCell id="VREcd3ZEuz7bc8ujEPia-252" value="" style="endArrow=none;html=1;" parent="1" edge="1">
          <mxGeometry width="50" height="50" relative="1" as="geometry">
            <mxPoint x="380" y="600" as="sourcePoint" />
            <mxPoint x="340" y="560" as="targetPoint" />
          </mxGeometry>
        </mxCell>
        <mxCell id="VREcd3ZEuz7bc8ujEPia-253" value="" style="endArrow=none;html=1;" parent="1" edge="1">
          <mxGeometry width="50" height="50" relative="1" as="geometry">
            <mxPoint x="340" y="600" as="sourcePoint" />
            <mxPoint x="380" y="560" as="targetPoint" />
          </mxGeometry>
        </mxCell>
        <mxCell id="VREcd3ZEuz7bc8ujEPia-254" value="" style="endArrow=none;html=1;" parent="1" edge="1">
          <mxGeometry width="50" height="50" relative="1" as="geometry">
            <mxPoint x="380" y="560" as="sourcePoint" />
            <mxPoint x="420" y="560" as="targetPoint" />
          </mxGeometry>
        </mxCell>
        <mxCell id="VREcd3ZEuz7bc8ujEPia-255" value="" style="endArrow=none;html=1;" parent="1" edge="1">
          <mxGeometry width="50" height="50" relative="1" as="geometry">
            <mxPoint x="460" y="600" as="sourcePoint" />
            <mxPoint x="500" y="600" as="targetPoint" />
          </mxGeometry>
        </mxCell>
        <mxCell id="VREcd3ZEuz7bc8ujEPia-256" value="" style="endArrow=none;html=1;" parent="1" edge="1">
          <mxGeometry width="50" height="50" relative="1" as="geometry">
            <mxPoint x="460" y="600" as="sourcePoint" />
            <mxPoint x="420" y="560" as="targetPoint" />
          </mxGeometry>
        </mxCell>
        <mxCell id="VREcd3ZEuz7bc8ujEPia-257" value="" style="endArrow=none;html=1;" parent="1" edge="1">
          <mxGeometry width="50" height="50" relative="1" as="geometry">
            <mxPoint x="420" y="600" as="sourcePoint" />
            <mxPoint x="460" y="560" as="targetPoint" />
          </mxGeometry>
        </mxCell>
        <mxCell id="VREcd3ZEuz7bc8ujEPia-258" value="" style="endArrow=none;html=1;" parent="1" edge="1">
          <mxGeometry width="50" height="50" relative="1" as="geometry">
            <mxPoint x="460" y="560" as="sourcePoint" />
            <mxPoint x="500" y="560" as="targetPoint" />
          </mxGeometry>
        </mxCell>
        <mxCell id="VREcd3ZEuz7bc8ujEPia-259" value="&lt;font style=&quot;font-size: 18px&quot;&gt;grayscale_o&lt;/font&gt;" style="text;whiteSpace=wrap;html=1;" parent="1" vertex="1">
          <mxGeometry x="-30" y="560" width="90" height="30" as="geometry" />
        </mxCell>
        <mxCell id="VREcd3ZEuz7bc8ujEPia-260" value="&lt;font style=&quot;font-size: 18px&quot;&gt;done_o&lt;/font&gt;" style="text;html=1;strokeColor=none;fillColor=none;align=center;verticalAlign=middle;whiteSpace=wrap;rounded=0;" parent="1" vertex="1">
          <mxGeometry y="650" width="60" height="20" as="geometry" />
        </mxCell>
        <mxCell id="VREcd3ZEuz7bc8ujEPia-261" value="" style="endArrow=none;html=1;" parent="1" edge="1">
          <mxGeometry width="50" height="50" relative="1" as="geometry">
            <mxPoint x="80" y="520" as="sourcePoint" />
            <mxPoint x="200" y="520" as="targetPoint" />
          </mxGeometry>
        </mxCell>
        <mxCell id="VREcd3ZEuz7bc8ujEPia-262" value="" style="endArrow=none;html=1;" parent="1" edge="1">
          <mxGeometry width="50" height="50" relative="1" as="geometry">
            <mxPoint x="280" y="680" as="sourcePoint" />
            <mxPoint x="280" y="640" as="targetPoint" />
          </mxGeometry>
        </mxCell>
        <mxCell id="VREcd3ZEuz7bc8ujEPia-263" value="" style="endArrow=none;html=1;" parent="1" edge="1">
          <mxGeometry width="50" height="50" relative="1" as="geometry">
            <mxPoint x="280" y="640" as="sourcePoint" />
            <mxPoint x="500" y="640" as="targetPoint" />
          </mxGeometry>
        </mxCell>
        <mxCell id="VREcd3ZEuz7bc8ujEPia-264" value="8d&#39;0" style="text;html=1;align=center;verticalAlign=middle;resizable=0;points=[];autosize=1;strokeColor=none;" parent="1" vertex="1">
          <mxGeometry x="70" y="250" width="40" height="20" as="geometry" />
        </mxCell>
        <mxCell id="VREcd3ZEuz7bc8ujEPia-265" value="8d&#39;8" style="text;html=1;align=center;verticalAlign=middle;resizable=0;points=[];autosize=1;strokeColor=none;" parent="1" vertex="1">
          <mxGeometry x="140" y="250" width="40" height="20" as="geometry" />
        </mxCell>
        <mxCell id="VREcd3ZEuz7bc8ujEPia-266" value="8d&#39;0" style="text;html=1;align=center;verticalAlign=middle;resizable=0;points=[];autosize=1;strokeColor=none;" parent="1" vertex="1">
          <mxGeometry x="70" y="330" width="40" height="20" as="geometry" />
        </mxCell>
        <mxCell id="VREcd3ZEuz7bc8ujEPia-267" value="8d&#39;0" style="text;html=1;align=center;verticalAlign=middle;resizable=0;points=[];autosize=1;strokeColor=none;" parent="1" vertex="1">
          <mxGeometry x="70" y="410" width="40" height="20" as="geometry" />
        </mxCell>
        <mxCell id="VREcd3ZEuz7bc8ujEPia-269" value="8d&#39;2" style="text;html=1;align=center;verticalAlign=middle;resizable=0;points=[];autosize=1;strokeColor=none;" parent="1" vertex="1">
          <mxGeometry x="140" y="330" width="40" height="20" as="geometry" />
        </mxCell>
        <mxCell id="VREcd3ZEuz7bc8ujEPia-270" value="8d&#39;1" style="text;html=1;align=center;verticalAlign=middle;resizable=0;points=[];autosize=1;strokeColor=none;" parent="1" vertex="1">
          <mxGeometry x="140" y="410" width="40" height="20" as="geometry" />
        </mxCell>
        <mxCell id="VREcd3ZEuz7bc8ujEPia-271" value="8d&#39;4" style="text;html=1;align=center;verticalAlign=middle;resizable=0;points=[];autosize=1;strokeColor=none;" parent="1" vertex="1">
          <mxGeometry x="220" y="250" width="40" height="20" as="geometry" />
        </mxCell>
        <mxCell id="VREcd3ZEuz7bc8ujEPia-272" value="8d&#39;1" style="text;html=1;align=center;verticalAlign=middle;resizable=0;points=[];autosize=1;strokeColor=none;" parent="1" vertex="1">
          <mxGeometry x="220" y="330" width="40" height="20" as="geometry" />
        </mxCell>
        <mxCell id="VREcd3ZEuz7bc8ujEPia-273" value="8d&#39;5" style="text;html=1;align=center;verticalAlign=middle;resizable=0;points=[];autosize=1;strokeColor=none;" parent="1" vertex="1">
          <mxGeometry x="220" y="410" width="40" height="20" as="geometry" />
        </mxCell>
        <mxCell id="VREcd3ZEuz7bc8ujEPia-274" value="8d&#39;2" style="text;html=1;align=center;verticalAlign=middle;resizable=0;points=[];autosize=1;strokeColor=none;" parent="1" vertex="1">
          <mxGeometry x="300" y="250" width="40" height="20" as="geometry" />
        </mxCell>
        <mxCell id="VREcd3ZEuz7bc8ujEPia-275" value="8d&#39;3" style="text;html=1;align=center;verticalAlign=middle;resizable=0;points=[];autosize=1;strokeColor=none;" parent="1" vertex="1">
          <mxGeometry x="385" y="250" width="40" height="20" as="geometry" />
        </mxCell>
        <mxCell id="VREcd3ZEuz7bc8ujEPia-276" value="8d&#39;7" style="text;html=1;align=center;verticalAlign=middle;resizable=0;points=[];autosize=1;strokeColor=none;" parent="1" vertex="1">
          <mxGeometry x="300" y="410" width="40" height="20" as="geometry" />
        </mxCell>
        <mxCell id="VREcd3ZEuz7bc8ujEPia-277" value="8d&#39;5" style="text;html=1;align=center;verticalAlign=middle;resizable=0;points=[];autosize=1;strokeColor=none;" parent="1" vertex="1">
          <mxGeometry x="300" y="330" width="40" height="20" as="geometry" />
        </mxCell>
        <mxCell id="VREcd3ZEuz7bc8ujEPia-278" value="8d&#39;8" style="text;html=1;align=center;verticalAlign=middle;resizable=0;points=[];autosize=1;strokeColor=none;" parent="1" vertex="1">
          <mxGeometry x="380" y="330" width="40" height="20" as="geometry" />
        </mxCell>
        <mxCell id="VREcd3ZEuz7bc8ujEPia-279" value="8d&#39;6" style="text;html=1;align=center;verticalAlign=middle;resizable=0;points=[];autosize=1;strokeColor=none;" parent="1" vertex="1">
          <mxGeometry x="380" y="410" width="40" height="20" as="geometry" />
        </mxCell>
      </root>
    </mxGraphModel>
  </diagram>
  <diagram id="802Q8LWZiS_qiqiGzUq2" name="Page-2">
    <mxGraphModel dx="1043" dy="495" grid="1" gridSize="10" guides="1" tooltips="1" connect="1" arrows="1" fold="1" page="1" pageScale="1" pageWidth="850" pageHeight="1100" math="0" shadow="0">
      <root>
        <mxCell id="687Nph5m1hAwQqMo3dI9-0" />
        <mxCell id="687Nph5m1hAwQqMo3dI9-1" parent="687Nph5m1hAwQqMo3dI9-0" />
      </root>
    </mxGraphModel>
  </diagram>
</mxfile>
